<svg width="10" height="10" viewBox="0 0 10 10" fill="none" xmlns="http://www.w3.org/2000/svg">
<path fill-rule="evenodd" clip-rule="evenodd" d="M9.44498 3.83318C9.33483 3.42963 8.94973 3.21023 8.54642 3.32126L5.58878 4.13543L4.78099 1.17604C4.67083 0.772488 4.28573 0.553091 3.88242 0.664115C3.47911 0.775139 3.25923 1.16107 3.36939 1.56462L4.17718 4.52401L1.21954 5.33819C0.816223 5.44921 0.596351 5.83514 0.706504 6.2387C0.761581 6.44047 0.908307 6.58086 1.07946 6.67837C1.25062 6.77588 1.4462 6.83051 1.64786 6.775L4.6055 5.96083L5.41329 8.92022C5.46837 9.12199 5.61509 9.26238 5.78625 9.35989C5.9574 9.4574 6.15299 9.51203 6.35465 9.45652C6.75796 9.3455 6.97783 8.95956 6.86768 8.55601L6.05989 5.59662L9.01753 4.78245C9.33526 4.62267 9.55514 4.23674 9.44498 3.83318Z" fill="#0CAF60"/>
</svg>
