<svg width="18" height="4" viewBox="0 0 18 4" fill="none" xmlns="http://www.w3.org/2000/svg">
<path d="M8 2.00085C8 2.55314 8.44772 3.00085 9 3.00085C9.55228 3.00085 10 2.55314 10 2.00085C10 1.44857 9.55228 1.00085 9 1.00085C8.44772 1.00085 8 1.44857 8 2.00085Z" stroke="#A0AEC0" stroke-width="2" stroke-linecap="round" stroke-linejoin="round"/>
<path d="M1 2.00085C1 2.55314 1.44772 3.00085 2 3.00085C2.55228 3.00085 3 2.55314 3 2.00085C3 1.44857 2.55228 1.00085 2 1.00085C1.44772 1.00085 1 1.44857 1 2.00085Z" stroke="#A0AEC0" stroke-width="2" stroke-linecap="round" stroke-linejoin="round"/>
<path d="M15 2.00085C15 2.55314 15.4477 3.00085 16 3.00085C16.5523 3.00085 17 2.55314 17 2.00085C17 1.44857 16.5523 1.00085 16 1.00085C15.4477 1.00085 15 1.44857 15 2.00085Z" stroke="#A0AEC0" stroke-width="2" stroke-linecap="round" stroke-linejoin="round"/>
</svg>
